<mxfile host="app.diagrams.net" agent="Mozilla/5.0 (Windows NT 10.0; Win64; x64) AppleWebKit/537.36 (KHTML, like Gecko) Chrome/139.0.0.0 Safari/537.36" version="28.1.0">
  <diagram name="Page-1" id="b4HCNyEPYKP3RMRGw5ef">
    <mxGraphModel dx="1678" dy="825" grid="1" gridSize="10" guides="1" tooltips="1" connect="1" arrows="1" fold="1" page="1" pageScale="1" pageWidth="850" pageHeight="1100" math="0" shadow="0">
      <root>
        <mxCell id="0" />
        <mxCell id="1" parent="0" />
        <mxCell id="FKW2jo1fwJxM2Nu_Dfiw-1" value="Patient" style="shape=umlActor;verticalLabelPosition=bottom;verticalAlign=top;html=1;outlineConnect=0;" parent="1" vertex="1">
          <mxGeometry x="140" y="100" width="30" height="60" as="geometry" />
        </mxCell>
        <mxCell id="FKW2jo1fwJxM2Nu_Dfiw-2" value="Receptionist" style="shape=umlActor;verticalLabelPosition=bottom;verticalAlign=top;html=1;outlineConnect=0;" parent="1" vertex="1">
          <mxGeometry x="140" y="250" width="30" height="60" as="geometry" />
        </mxCell>
        <mxCell id="FKW2jo1fwJxM2Nu_Dfiw-3" value="Admin" style="shape=umlActor;verticalLabelPosition=bottom;verticalAlign=top;html=1;outlineConnect=0;" parent="1" vertex="1">
          <mxGeometry x="140" y="430" width="40" height="70" as="geometry" />
        </mxCell>
        <mxCell id="FKW2jo1fwJxM2Nu_Dfiw-4" value="" style="rounded=0;whiteSpace=wrap;html=1;" parent="1" vertex="1">
          <mxGeometry x="240" y="10" width="435" height="680" as="geometry" />
        </mxCell>
        <mxCell id="FKW2jo1fwJxM2Nu_Dfiw-5" value="Register/Login" style="ellipse;whiteSpace=wrap;html=1;" parent="1" vertex="1">
          <mxGeometry x="417.5" y="80" width="90" height="50" as="geometry" />
        </mxCell>
        <mxCell id="FKW2jo1fwJxM2Nu_Dfiw-6" value="&lt;span style=&quot;color: rgba(0, 0, 0, 0); font-family: monospace; font-size: 0px; text-align: start; text-wrap-mode: nowrap;&quot;&gt;%3CmxGraphModel%3E%3Croot%3E%3CmxCell%20id%3D%220%22%2F%3E%3CmxCell%20id%3D%221%22%20parent%3D%220%22%2F%3E%3CmxCell%20id%3D%222%22%20value%3D%22%22%20style%3D%22endArrow%3Dnone%3Bhtml%3D1%3Brounded%3D0%3BentryX%3D0%3BentryY%3D0.5%3BentryDx%3D0%3BentryDy%3D0%3BexitX%3D0.5%3BexitY%3D0.5%3BexitDx%3D0%3BexitDy%3D0%3BexitPerimeter%3D0%3B%22%20edge%3D%221%22%20parent%3D%221%22%3E%3CmxGeometry%20width%3D%2250%22%20height%3D%2250%22%20relative%3D%221%22%20as%3D%22geometry%22%3E%3CmxPoint%20x%3D%22155%22%20y%3D%22130%22%20as%3D%22sourcePoint%22%2F%3E%3CmxPoint%20x%3D%22375%22%20y%3D%22205%22%20as%3D%22targetPoint%22%2F%3E%3C%2FmxGeometry%3E%3C%2FmxCell%3E%3C%2Froot%3E%3C%2FmxGraphModel%3E&lt;/span&gt;&lt;span style=&quot;color: rgba(0, 0, 0, 0); font-family: monospace; font-size: 0px; text-align: start; text-wrap-mode: nowrap;&quot;&gt;%3CmxGraphModel%3E%3Croot%3E%3CmxCell%20id%3D%220%22%2F%3E%3CmxCell%20id%3D%221%22%20parent%3D%220%22%2F%3E%3CmxCell%20id%3D%222%22%20value%3D%22%22%20style%3D%22endArrow%3Dnone%3Bhtml%3D1%3Brounded%3D0%3BentryX%3D0%3BentryY%3D0.5%3BentryDx%3D0%3BentryDy%3D0%3BexitX%3D0.5%3BexitY%3D0.5%3BexitDx%3D0%3BexitDy%3D0%3BexitPerimeter%3D0%3B%22%20edge%3D%221%22%20parent%3D%221%22%3E%3CmxGeometry%20width%3D%2250%22%20height%3D%2250%22%20relative%3D%221%22%20as%3D%22geometry%22%3E%3CmxPoint%20x%3D%22155%22%20y%3D%22130%22%20as%3D%22sourcePoint%22%2F%3E%3CmxPoint%20x%3D%22375%22%20y%3D%22205%22%20as%3D%22targetPoint%22%2F%3E%3C%2FmxGeometry%3E%3C%2FmxCell%3E%3C%2Froot%3E%3C%2FmxGraphModel%3E&lt;/span&gt;Book Appointment" style="ellipse;whiteSpace=wrap;html=1;" parent="1" vertex="1">
          <mxGeometry x="300" y="120" width="90" height="50" as="geometry" />
        </mxCell>
        <mxCell id="FKW2jo1fwJxM2Nu_Dfiw-7" value="Cancel Appointment" style="ellipse;whiteSpace=wrap;html=1;" parent="1" vertex="1">
          <mxGeometry x="530" y="150" width="90" height="60" as="geometry" />
        </mxCell>
        <mxCell id="FKW2jo1fwJxM2Nu_Dfiw-24" value="View Doctor Schedule" style="ellipse;whiteSpace=wrap;html=1;" parent="1" vertex="1">
          <mxGeometry x="407.5" y="270" width="90" height="50" as="geometry" />
        </mxCell>
        <mxCell id="FKW2jo1fwJxM2Nu_Dfiw-25" value="Manage Patient Records" style="ellipse;whiteSpace=wrap;html=1;" parent="1" vertex="1">
          <mxGeometry x="300" y="300" width="90" height="50" as="geometry" />
        </mxCell>
        <mxCell id="FKW2jo1fwJxM2Nu_Dfiw-26" value="View Appointment" style="ellipse;whiteSpace=wrap;html=1;" parent="1" vertex="1">
          <mxGeometry x="410" y="180" width="90" height="50" as="geometry" />
        </mxCell>
        <mxCell id="FKW2jo1fwJxM2Nu_Dfiw-27" value="Update Doctor Availability" style="ellipse;whiteSpace=wrap;html=1;" parent="1" vertex="1">
          <mxGeometry x="530" y="325" width="90" height="50" as="geometry" />
        </mxCell>
        <mxCell id="FKW2jo1fwJxM2Nu_Dfiw-28" value="Manage Appointments" style="ellipse;whiteSpace=wrap;html=1;" parent="1" vertex="1">
          <mxGeometry x="407.5" y="390" width="90" height="50" as="geometry" />
        </mxCell>
        <mxCell id="dbwZI3TcbY7HOLetr0R5-1" value="Clinical Appointment Management System" style="text;html=1;align=center;verticalAlign=middle;whiteSpace=wrap;rounded=0;" parent="1" vertex="1">
          <mxGeometry x="335" y="20" width="240" height="30" as="geometry" />
        </mxCell>
        <mxCell id="TOviq4dreaSVOJ9qKN_Y-7" value="Doctor" style="shape=umlActor;verticalLabelPosition=bottom;verticalAlign=top;html=1;outlineConnect=0;" vertex="1" parent="1">
          <mxGeometry x="750" y="190" width="40" height="70" as="geometry" />
        </mxCell>
        <mxCell id="TOviq4dreaSVOJ9qKN_Y-8" value="Manage Users" style="ellipse;whiteSpace=wrap;html=1;" vertex="1" parent="1">
          <mxGeometry x="410" y="530" width="100" height="50" as="geometry" />
        </mxCell>
        <mxCell id="TOviq4dreaSVOJ9qKN_Y-12" value="" style="endArrow=none;html=1;rounded=0;entryX=0.01;entryY=0.612;entryDx=0;entryDy=0;entryPerimeter=0;" edge="1" parent="1" source="FKW2jo1fwJxM2Nu_Dfiw-1" target="FKW2jo1fwJxM2Nu_Dfiw-5">
          <mxGeometry width="50" height="50" relative="1" as="geometry">
            <mxPoint x="80" y="250" as="sourcePoint" />
            <mxPoint x="130" y="200" as="targetPoint" />
          </mxGeometry>
        </mxCell>
        <mxCell id="TOviq4dreaSVOJ9qKN_Y-14" value="" style="endArrow=none;html=1;rounded=0;" edge="1" parent="1" source="FKW2jo1fwJxM2Nu_Dfiw-1" target="FKW2jo1fwJxM2Nu_Dfiw-6">
          <mxGeometry width="50" height="50" relative="1" as="geometry">
            <mxPoint x="150" y="260" as="sourcePoint" />
            <mxPoint x="200" y="210" as="targetPoint" />
          </mxGeometry>
        </mxCell>
        <mxCell id="TOviq4dreaSVOJ9qKN_Y-15" value="" style="endArrow=none;html=1;rounded=0;" edge="1" parent="1" source="FKW2jo1fwJxM2Nu_Dfiw-1" target="FKW2jo1fwJxM2Nu_Dfiw-26">
          <mxGeometry width="50" height="50" relative="1" as="geometry">
            <mxPoint x="80" y="270" as="sourcePoint" />
            <mxPoint x="130" y="220" as="targetPoint" />
          </mxGeometry>
        </mxCell>
        <mxCell id="TOviq4dreaSVOJ9qKN_Y-16" value="" style="endArrow=none;html=1;rounded=0;" edge="1" parent="1" source="FKW2jo1fwJxM2Nu_Dfiw-1" target="FKW2jo1fwJxM2Nu_Dfiw-7">
          <mxGeometry width="50" height="50" relative="1" as="geometry">
            <mxPoint x="190" y="140" as="sourcePoint" />
            <mxPoint x="240" y="90" as="targetPoint" />
            <Array as="points">
              <mxPoint x="460" y="250" />
            </Array>
          </mxGeometry>
        </mxCell>
        <mxCell id="TOviq4dreaSVOJ9qKN_Y-17" value="" style="endArrow=none;html=1;rounded=0;exitX=1;exitY=0.5;exitDx=0;exitDy=0;" edge="1" parent="1" source="FKW2jo1fwJxM2Nu_Dfiw-5">
          <mxGeometry width="50" height="50" relative="1" as="geometry">
            <mxPoint x="710" y="220" as="sourcePoint" />
            <mxPoint x="760" y="230" as="targetPoint" />
            <Array as="points">
              <mxPoint x="640" y="140" />
            </Array>
          </mxGeometry>
        </mxCell>
        <mxCell id="TOviq4dreaSVOJ9qKN_Y-20" value="" style="endArrow=none;html=1;rounded=0;" edge="1" parent="1" source="FKW2jo1fwJxM2Nu_Dfiw-24">
          <mxGeometry width="50" height="50" relative="1" as="geometry">
            <mxPoint x="710" y="280" as="sourcePoint" />
            <mxPoint x="760" y="230" as="targetPoint" />
          </mxGeometry>
        </mxCell>
        <mxCell id="TOviq4dreaSVOJ9qKN_Y-21" value="" style="endArrow=none;html=1;rounded=0;" edge="1" parent="1">
          <mxGeometry width="50" height="50" relative="1" as="geometry">
            <mxPoint x="620" y="350" as="sourcePoint" />
            <mxPoint x="760" y="230" as="targetPoint" />
          </mxGeometry>
        </mxCell>
        <mxCell id="TOviq4dreaSVOJ9qKN_Y-23" value="" style="endArrow=none;html=1;rounded=0;exitX=1;exitY=1;exitDx=0;exitDy=0;" edge="1" parent="1" source="FKW2jo1fwJxM2Nu_Dfiw-28">
          <mxGeometry width="50" height="50" relative="1" as="geometry">
            <mxPoint x="710" y="350" as="sourcePoint" />
            <mxPoint x="760" y="230" as="targetPoint" />
            <Array as="points">
              <mxPoint x="640" y="390" />
            </Array>
          </mxGeometry>
        </mxCell>
        <mxCell id="TOviq4dreaSVOJ9qKN_Y-24" value="" style="endArrow=none;html=1;rounded=0;entryX=0.615;entryY=0.985;entryDx=0;entryDy=0;entryPerimeter=0;" edge="1" parent="1" source="FKW2jo1fwJxM2Nu_Dfiw-2" target="FKW2jo1fwJxM2Nu_Dfiw-5">
          <mxGeometry width="50" height="50" relative="1" as="geometry">
            <mxPoint x="170" y="300" as="sourcePoint" />
            <mxPoint x="200" y="260" as="targetPoint" />
          </mxGeometry>
        </mxCell>
        <mxCell id="TOviq4dreaSVOJ9qKN_Y-25" value="" style="endArrow=none;html=1;rounded=0;entryX=0;entryY=1;entryDx=0;entryDy=0;" edge="1" parent="1" target="FKW2jo1fwJxM2Nu_Dfiw-6">
          <mxGeometry width="50" height="50" relative="1" as="geometry">
            <mxPoint x="170" y="270" as="sourcePoint" />
            <mxPoint x="308.38284172005115" y="165.15776422037948" as="targetPoint" />
          </mxGeometry>
        </mxCell>
        <mxCell id="TOviq4dreaSVOJ9qKN_Y-26" value="" style="endArrow=none;html=1;rounded=0;entryX=0.319;entryY=-0.008;entryDx=0;entryDy=0;entryPerimeter=0;exitX=1;exitY=0.3333333333333333;exitDx=0;exitDy=0;exitPerimeter=0;" edge="1" parent="1" source="FKW2jo1fwJxM2Nu_Dfiw-2" target="FKW2jo1fwJxM2Nu_Dfiw-25">
          <mxGeometry width="50" height="50" relative="1" as="geometry">
            <mxPoint x="210" y="310" as="sourcePoint" />
            <mxPoint x="260" y="260" as="targetPoint" />
          </mxGeometry>
        </mxCell>
        <mxCell id="TOviq4dreaSVOJ9qKN_Y-27" value="" style="endArrow=none;html=1;rounded=0;exitX=1;exitY=0.3333333333333333;exitDx=0;exitDy=0;exitPerimeter=0;" edge="1" parent="1" source="FKW2jo1fwJxM2Nu_Dfiw-2">
          <mxGeometry width="50" height="50" relative="1" as="geometry">
            <mxPoint x="360" y="460" as="sourcePoint" />
            <mxPoint x="410" y="410" as="targetPoint" />
            <Array as="points">
              <mxPoint x="290" y="350" />
            </Array>
          </mxGeometry>
        </mxCell>
        <mxCell id="TOviq4dreaSVOJ9qKN_Y-28" value="" style="endArrow=none;html=1;rounded=0;exitX=1;exitY=0.3333333333333333;exitDx=0;exitDy=0;exitPerimeter=0;" edge="1" parent="1" source="FKW2jo1fwJxM2Nu_Dfiw-3" target="FKW2jo1fwJxM2Nu_Dfiw-5">
          <mxGeometry width="50" height="50" relative="1" as="geometry">
            <mxPoint x="180" y="460" as="sourcePoint" />
            <mxPoint x="230" y="410" as="targetPoint" />
          </mxGeometry>
        </mxCell>
        <mxCell id="TOviq4dreaSVOJ9qKN_Y-36" value="" style="endArrow=none;html=1;rounded=0;exitX=1;exitY=0.3333333333333333;exitDx=0;exitDy=0;exitPerimeter=0;" edge="1" parent="1" source="FKW2jo1fwJxM2Nu_Dfiw-3" target="TOviq4dreaSVOJ9qKN_Y-8">
          <mxGeometry width="50" height="50" relative="1" as="geometry">
            <mxPoint x="190" y="470" as="sourcePoint" />
            <mxPoint x="245" y="430" as="targetPoint" />
          </mxGeometry>
        </mxCell>
        <mxCell id="TOviq4dreaSVOJ9qKN_Y-38" value="&amp;lt;&amp;lt;include&amp;gt;&amp;gt;" style="edgeStyle=none;html=1;endArrow=open;verticalAlign=bottom;dashed=1;labelBackgroundColor=none;rounded=0;entryX=0;entryY=0;entryDx=0;entryDy=0;" edge="1" parent="1" source="FKW2jo1fwJxM2Nu_Dfiw-6" target="FKW2jo1fwJxM2Nu_Dfiw-5">
          <mxGeometry x="-0.0521" y="10" width="160" relative="1" as="geometry">
            <mxPoint x="280" y="90" as="sourcePoint" />
            <mxPoint x="420" y="90" as="targetPoint" />
            <Array as="points">
              <mxPoint x="390" y="100" />
            </Array>
            <mxPoint as="offset" />
          </mxGeometry>
        </mxCell>
        <mxCell id="TOviq4dreaSVOJ9qKN_Y-42" value="&amp;lt;&amp;lt;include&amp;gt;&amp;gt;" style="edgeStyle=none;html=1;endArrow=open;verticalAlign=bottom;dashed=1;labelBackgroundColor=none;rounded=0;entryX=0.686;entryY=0.982;entryDx=0;entryDy=0;entryPerimeter=0;" edge="1" parent="1" target="FKW2jo1fwJxM2Nu_Dfiw-5">
          <mxGeometry width="160" relative="1" as="geometry">
            <mxPoint x="460" y="180" as="sourcePoint" />
            <mxPoint x="620" y="180" as="targetPoint" />
          </mxGeometry>
        </mxCell>
        <mxCell id="TOviq4dreaSVOJ9qKN_Y-44" value="&amp;lt;&amp;lt;include&amp;gt;&amp;gt;" style="edgeStyle=none;html=1;endArrow=open;verticalAlign=bottom;dashed=1;labelBackgroundColor=none;rounded=0;" edge="1" parent="1" target="FKW2jo1fwJxM2Nu_Dfiw-5">
          <mxGeometry width="160" relative="1" as="geometry">
            <mxPoint x="575" y="150" as="sourcePoint" />
            <mxPoint x="594" y="99" as="targetPoint" />
          </mxGeometry>
        </mxCell>
        <mxCell id="TOviq4dreaSVOJ9qKN_Y-46" value="&amp;lt;&amp;lt;extend&amp;gt;&amp;gt;" style="edgeStyle=none;html=1;startArrow=open;endArrow=none;startSize=12;verticalAlign=bottom;dashed=1;labelBackgroundColor=none;rounded=0;exitX=0.947;exitY=0.646;exitDx=0;exitDy=0;exitPerimeter=0;" edge="1" parent="1" source="FKW2jo1fwJxM2Nu_Dfiw-6">
          <mxGeometry width="160" relative="1" as="geometry">
            <mxPoint x="372.5" y="170" as="sourcePoint" />
            <mxPoint x="532.5" y="170" as="targetPoint" />
            <Array as="points">
              <mxPoint x="450" y="170" />
            </Array>
          </mxGeometry>
        </mxCell>
        <mxCell id="TOviq4dreaSVOJ9qKN_Y-47" value="&amp;lt;&amp;lt;include&amp;gt;&amp;gt;" style="edgeStyle=none;html=1;endArrow=open;verticalAlign=bottom;dashed=1;labelBackgroundColor=none;rounded=0;exitX=0.583;exitY=0;exitDx=0;exitDy=0;exitPerimeter=0;entryX=0.889;entryY=0.8;entryDx=0;entryDy=0;entryPerimeter=0;" edge="1" parent="1" source="FKW2jo1fwJxM2Nu_Dfiw-28" target="FKW2jo1fwJxM2Nu_Dfiw-26">
          <mxGeometry width="160" relative="1" as="geometry">
            <mxPoint x="450" y="330" as="sourcePoint" />
            <mxPoint x="610" y="330" as="targetPoint" />
            <Array as="points">
              <mxPoint x="540" y="300" />
            </Array>
          </mxGeometry>
        </mxCell>
      </root>
    </mxGraphModel>
  </diagram>
</mxfile>
